<svg width="800" height="600" xmlns="http://www.w3.org/2000/svg">
  <!-- Fondo del dashboard -->
  <rect width="800" height="600" fill="#f8fafc" rx="10" ry="10" />
  
  <!-- Borde del dashboard -->
  <rect x="2" y="2" width="796" height="596" rx="8" ry="8" fill="none" stroke="#e2e8f0" stroke-width="2" />
  
  <!-- Barra superior -->
  <rect x="2" y="2" width="796" height="60" rx="8" ry="8" fill="#3F95FF" />
  
  <!-- Logo placeholder -->
  <rect x="20" y="16" width="120" height="32" rx="4" ry="4" fill="#ffffff" opacity="0.9" />
  <text x="38" y="38" font-family="Arial" font-size="14" font-weight="bold" fill="#3F95FF">ELEVATE CRM</text>
  
  <!-- Iconos de navegación -->
  <circle cx="740" cy="32" r="16" fill="#ffffff" opacity="0.3" />
  <circle cx="700" cy="32" r="16" fill="#ffffff" opacity="0.3" />
  <circle cx="660" cy="32" r="16" fill="#ffffff" opacity="0.3" />
  
  <!-- Sidebar -->
  <rect x="2" y="62" width="180" height="536" fill="#f1f5f9" />
  
  <!-- Elementos del sidebar -->
  <rect x="20" y="90" width="140" height="10" rx="2" ry="2" fill="#cbd5e1" />
  <rect x="20" y="120" width="140" height="10" rx="2" ry="2" fill="#cbd5e1" />
  <rect x="20" y="150" width="140" height="10" rx="2" ry="2" fill="#cbd5e1" />
  <rect x="20" y="180" width="140" height="10" rx="2" ry="2" fill="#cbd5e1" />
  <rect x="20" y="210" width="140" height="10" rx="2" ry="2" fill="#cbd5e1" />
  <rect x="20" y="240" width="140" height="10" rx="2" ry="2" fill="#cbd5e1" />
  
  <!-- Área principal -->
  <rect x="202" y="82" width="576" height="200" rx="8" ry="8" fill="#ffffff" stroke="#e2e8f0" stroke-width="1" />
  
  <!-- Gráficos y estadísticas -->
  <rect x="220" y="100" width="250" height="164" rx="4" ry="4" fill="#3F95FF" opacity="0.1" />
  <polyline points="230,230 250,180 270,200 290,150 310,190 330,120 350,160 370,140 390,180 410,120 430,140 450,240" fill="none" stroke="#3F95FF" stroke-width="2" />
  
  <rect x="490" y="100" width="270" height="80" rx="4" ry="4" fill="#3F95FF" opacity="0.05" />
  <circle cx="530" cy="140" r="30" fill="#3F95FF" opacity="0.2" />
  <path d="M530 110 A30 30 0 0 1 557 140" fill="none" stroke="#3F95FF" stroke-width="4" />
  <rect x="570" y="120" width="170" height="10" rx="2" ry="2" fill="#cbd5e1" />
  <rect x="570" y="140" width="120" height="10" rx="2" ry="2" fill="#cbd5e1" />
  <rect x="570" y="160" width="150" height="10" rx="2" ry="2" fill="#cbd5e1" />
  
  <rect x="490" y="190" width="270" height="74" rx="4" ry="4" fill="#3F95FF" opacity="0.05" />
  <rect x="510" y="210" width="230" height="40" rx="2" ry="2" fill="#ffffff" stroke="#e2e8f0" stroke-width="1" />
  <rect x="520" y="220" width="120" height="20" rx="2" ry="2" fill="#cbd5e1" />
  
  <!-- Widgets inferiores -->
  <rect x="202" y="302" width="280" height="276" rx="8" ry="8" fill="#ffffff" stroke="#e2e8f0" stroke-width="1" />
  <rect x="498" y="302" width="280" height="276" rx="8" ry="8" fill="#ffffff" stroke="#e2e8f0" stroke-width="1" />
  
  <!-- Elementos decorativos -->
  <rect x="220" y="320" width="100" height="15" rx="2" ry="2" fill="#cbd5e1" />
  <rect x="220" y="345" width="244" height="10" rx="2" ry="2" fill="#e2e8f0" />
  <rect x="220" y="365" width="244" height="10" rx="2" ry="2" fill="#e2e8f0" />
  <rect x="220" y="385" width="244" height="10" rx="2" ry="2" fill="#e2e8f0" />
  <rect x="220" y="405" width="244" height="10" rx="2" ry="2" fill="#e2e8f0" />
  <rect x="220" y="425" width="244" height="10" rx="2" ry="2" fill="#e2e8f0" />
  <rect x="220" y="445" width="244" height="10" rx="2" ry="2" fill="#e2e8f0" />
  <rect x="220" y="465" width="244" height="10" rx="2" ry="2" fill="#e2e8f0" />
  <rect x="220" y="485" width="244" height="10" rx="2" ry="2" fill="#e2e8f0" />
  <rect x="220" y="505" width="244" height="10" rx="2" ry="2" fill="#e2e8f0" />
  <rect x="220" y="525" width="244" height="10" rx="2" ry="2" fill="#e2e8f0" />
  <rect x="220" y="545" width="180" height="10" rx="2" ry="2" fill="#e2e8f0" />
  
  <rect x="515" y="320" width="100" height="15" rx="2" ry="2" fill="#cbd5e1" />
  <circle cx="535" cy="380" r="15" fill="#3F95FF" opacity="0.1" />
  <circle cx="535" cy="430" r="15" fill="#3F95FF" opacity="0.1" />
  <circle cx="535" cy="480" r="15" fill="#3F95FF" opacity="0.1" />
  <circle cx="535" cy="530" r="15" fill="#3F95FF" opacity="0.1" />
  
  <rect x="560" y="370" width="200" height="10" rx="2" ry="2" fill="#e2e8f0" />
  <rect x="560" y="390" width="150" height="10" rx="2" ry="2" fill="#e2e8f0" />
  <rect x="560" y="420" width="200" height="10" rx="2" ry="2" fill="#e2e8f0" />
  <rect x="560" y="440" width="150" height="10" rx="2" ry="2" fill="#e2e8f0" />
  <rect x="560" y="470" width="200" height="10" rx="2" ry="2" fill="#e2e8f0" />
  <rect x="560" y="490" width="150" height="10" rx="2" ry="2" fill="#e2e8f0" />
  <rect x="560" y="520" width="200" height="10" rx="2" ry="2" fill="#e2e8f0" />
  <rect x="560" y="540" width="150" height="10" rx="2" ry="2" fill="#e2e8f0" />
</svg> 